<svg version="1.1" id="Calque_1" xmlns="http://www.w3.org/2000/svg" x="0px" y="0px" viewBox="0 0 818.04 332.43" style="enable-background:new 0 0 818.04 332.43" xml:space="preserve"><style>.st0{fill:#ffffff}</style><path class="st0" d="M165.93,236.91c-3.43,1.63-6.86,3.18-10.3,4.77c14.53-6.88,29.02-14.41,43.28-22.48 c14.23-8.12,28.26-16.74,41.84-25.83c27.16-18.17,52.67-38.03,75.04-58.46c2.73-2.64,8.09-8,10.73-10.72 c11-10.36,23.22-22.16,34.97-34.37c11.78-12.18,23.07-24.78,32.44-36.38c4.69-5.8,9.08-10.62,12.27-14.05 c1.6-1.71,2.88-3.07,3.81-3.99c0.91-0.92,1.41-1.43,1.41-1.43c2.42-2.84,5.08-5.56,3.6-2.13c-1.85,3.23-5.39,8.75-8.56,13.42 c-3.18,4.67-5.87,8.55-5.49,8.85c0.17,0.13,2.51-2.84,4.72-5.91c0.38,0.28,2.66-1.57,5.04-3.97c1.21-1.18,2.43-2.51,3.48-3.74 c1.06-1.22,1.95-2.35,2.45-3.16c1.24-1.47,5.23-6.85,8.71-12.61c0.9-1.42,1.68-2.91,2.49-4.32c0.75-1.43,1.46-2.8,2.05-4.06 c1.2-2.53,1.93-4.62,2.33-5.54c0.88-2.74,1.23-2.65,1.21-0.74c0.02,0.93-0.18,2.42-0.45,4.27c-0.2,0.9-0.41,1.88-0.64,2.94 c-0.24,1.06-0.59,2.13-0.92,3.3c-2.75,9.21-8.7,20.7-12.89,27.32c-4.11,6.71,0.98,0.69,1.58,1.09c-4.7,6.35-6.49,9.91-11.5,15.97 c0.02,0.02-0.18,0.33-0.57,0.87c-0.39,0.54-0.96,1.32-1.68,2.27c-1.47,1.88-3.47,4.51-5.8,7.33 c-4.62,5.69-10.36,12.32-14.32,16.61c0,0-0.7,0.68-2.38,2.44c-1.69,1.75-4.38,4.55-8.42,8.75c-2.69,2.81-2.87,2.63-3.04,2.47 c0.17,0.17,0.17,0.17,0.34,0.33c-1.54,1.22-3.57,3.3-5.6,5.39c-2.05,2.07-4.07,4.17-5.54,5.45c0.17,0.17,0.17,0.17,0.34,0.34 c-5.89,5.07-11.17,10.77-17.05,15.83c0.16,0.18,0.16,0.18,0.32,0.35c-2.86,2.63-5.75,5.21-5.58,5.39 c0.16,0.18,0.16,0.18,0.32,0.36c-2.72,2.8-8.89,7.55-8.57,7.91c-0.16-0.18-0.16-0.18-0.31-0.36 c-11.73,10.18-20.61,17.71-29.61,25.1c-11.92,9.97-25.91,20.5-40.82,30.56c-14.88,10.1-30.7,19.7-46.02,28.2 c-3.39,1.92-7.01,3.41-3.86,1.08c-3.37,1.93-6.8,3.79-10.21,5.65c-6.84,3.69-3.77,1.19-10.64,4.82 c-13.95,6.88-28.12,13.31-42.53,19.22c-14.4,5.91-29.06,11.26-44,15.8c-14.94,4.54-30.13,8.37-45.56,11.1 c-15.43,2.72-31.08,4.42-46.8,4.85c3.92-0.28,7.6-0.48,11.14-0.83c1.77-0.18,3.51-0.36,5.23-0.54c1.72-0.17,3.43-0.35,5.13-0.59 c3.4-0.46,6.81-0.8,10.31-1.36c3.51-0.5,7.15-0.98,11-1.61c-0.04-0.24-0.12-0.71,3.73-1.36c11.51-2.17,23.87-4.97,34.65-7.98 c2.7-0.74,5.3-1.47,7.76-2.25c2.46-0.77,4.8-1.47,6.96-2.21c4.3-1.51,7.97-2.79,10.63-4c1.8-0.75,3.55-1.61,6.22-2.76 c2.65-1.21,6.24-2.67,11.66-4.77c-3.6,1.43-7.25,2.72-10.88,4.08c-0.08-0.23-0.24-0.67-0.24-0.67 c14.48-5.46,32.22-13.13,46.02-20.03c0,0-0.21-0.43-0.31-0.65l6.93-3.34c1.55-1.22,0.33-0.95-2.63,0.23 c-1.48,0.59-3.4,1.42-5.63,2.42c-2.24,0.98-4.79,2.1-7.55,3.3c-5.5,2.4-11.79,5.09-17.86,7.54c-6.07,2.44-11.9,4.68-16.43,6.27 c-0.08-0.22-0.25-0.67-0.33-0.9c2.39-0.9,4.81-1.75,7.18-2.71l-0.17-0.45c-21.45,8.21-39.75,14.01-62.18,19.04 c3.76-0.77,11.19-2.64,14.9-3.6c-0.06-0.23-0.12-0.46,3.56-1.47c-7.37,2.07-15.73,4.1-24.15,5.87c-4.22,0.82-8.44,1.68-12.58,2.28 c-2.07,0.31-4.1,0.67-6.1,0.9c-2,0.23-3.96,0.45-5.86,0.67c-1.91,0.15-1.93-0.09-0.08-0.59c0.93-0.25,2.33-0.57,4.2-0.94 c1.87-0.36,4.21-0.82,7.01-1.36c11.26-1.92,18.72-3.48,29.81-6.28l-0.12-0.46c-7.36,1.97-18.49,4.51-26.02,5.64 c-1.9,0.19-0.05-0.28,1.79-0.8c1.83-0.54,3.66-1.08,1.78-0.84c-1.86,0.38-3.73,0.71-5.61,0.98c-1.88,0.29-3.76,0.54-5.65,0.74 c2.81-0.46,5.85-0.97,9-1.49c3.14-0.61,6.41-1.19,9.66-1.85c3.24-0.72,6.49-1.39,9.6-2.15c3.1-0.79,6.1-1.54,8.83-2.32 c3.6-1.23,7.19-2.47,7.06-2.93c18.27-4.98,32.31-10.96,42.4-16.24c1.68-0.89,6.9-3.1,13-5.68c3.03-1.34,6.3-2.72,9.42-4.13 C160.35,239.48,163.38,238.14,165.93,236.91z"/><path class="st0" d="M158.25,202.07c-2.22,1-4.41,2.03-6.64,2.99c18.71-8.71,37.27-19.22,54.68-31c2.15-1.51,4.3-3.01,6.45-4.51 c1.07-0.76,2.15-1.49,3.2-2.26l3.13-2.34c2.08-1.56,4.16-3.12,6.22-4.67c2.02-1.61,4.03-3.22,6.04-4.81c1-0.8,2-1.6,2.99-2.4 c0.97-0.83,1.94-1.65,2.91-2.47c1.93-1.65,3.84-3.29,5.75-4.92c1.86-1.69,3.7-3.36,5.53-5.03c1.83-1.67,3.63-3.33,5.36-5.05 c1.64-1.82,4.99-5.37,6.58-7.23c6.89-6.85,14.56-14.61,22.04-22.53c7.48-7.91,14.68-16.06,20.71-23.48 c1.56-1.83,2.98-3.53,4.43-4.97c1.45-1.44,2.74-2.7,3.85-3.73c1.12-1.03,2.08-1.82,2.75-2.35c0.66-0.53,1.03-0.83,1.03-0.83 c1.66-1.73,3.75-3.25,2.88-0.98c-1.12,2.11-3.48,5.62-5.43,8.68c-2.05,3.02-3.66,5.61-3.28,5.9c0.19,0.14,1.64-1.81,3.09-3.78 c0.81,0.61,6.6-4.33,7.95-6.42c0.85-0.92,3.64-4.26,6.13-7.87c0.67-0.87,1.21-1.82,1.78-2.7c0.55-0.89,1.12-1.73,1.57-2.52 c0.85-1.61,1.54-2.9,1.88-3.46c0.74-1.72,1.08-1.61,1.14-0.33c0.06,0.63-0.08,1.61-0.27,2.82c-0.1,0.61-0.21,1.28-0.35,2 c-0.15,0.71-0.37,1.41-0.58,2.17c-1.7,6.12-5.29,13.83-7.97,18.18c-2.52,4.51,0.98,0.69,1.57,1.09c-0.79,1.03-1.42,1.98-2.01,2.84 c-0.6,0.86-1.12,1.67-1.65,2.48c-1.07,1.6-2.07,3.28-3.77,5.2c0.05,0.04-0.5,0.83-1.42,2.09c-0.93,1.25-2.19,3.02-3.7,4.86 c-1.5,1.86-3.14,3.92-4.74,5.84c-1.64,1.89-3.2,3.69-4.45,5.13c0,0-0.46,0.44-1.56,1.59c-1.12,1.13-2.88,2.95-5.46,5.75 c-1.72,1.87-1.9,1.7-2.07,1.53c0.17,0.16,0.17,0.16,0.35,0.33c-2.11,1.49-5.29,5.47-7.22,7.12c0.17,0.17,0.17,0.17,0.34,0.34 c-3.96,3.19-7.16,7.16-11.05,10.41c0.16,0.17,0.16,0.17,0.33,0.35c-1.85,1.74-3.69,3.47-3.53,3.64c0.16,0.18,0.16,0.18,0.33,0.35 c-1.67,1.94-5.81,4.92-5.48,5.29c-0.16-0.18-0.16-0.18-0.32-0.36c-1.9,1.68-3.63,3.31-5.34,4.79c-1.69,1.49-3.3,2.91-4.84,4.27 c-3.05,2.77-5.97,5.22-8.84,7.72c-15.14,13.58-36.43,27.82-56.64,38.73c-2.24,1.23-4.71,2.04-2.7,0.39 c-2.23,1.22-4.47,2.45-6.7,3.68c-4.5,2.38-2.59,0.53-7.13,2.84c-2.32,1.06-4.6,2.19-6.93,3.22l-7.02,3.03l-3.5,1.53 c-1.17,0.51-2.37,0.94-3.55,1.42l-7.12,2.81c-2.35,0.99-4.8,1.74-7.2,2.62l-7.23,2.54l-7.35,2.23c-2.45,0.74-4.89,1.53-7.39,2.11 c-19.81,5.24-40.48,8.17-61.2,7.32c2.59-0.08,5.01-0.16,7.35-0.24c1.17-0.04,2.32-0.09,3.46-0.13c1.14-0.04,2.27-0.06,3.39-0.2 c2.25-0.21,4.49-0.41,6.82-0.59c2.32-0.19,4.74-0.27,7.29-0.6c-0.03-0.24-0.08-0.71,2.46-1.05c15.22-2.06,32.75-5.94,39.67-9.35 c1.18-0.48,2.32-1.08,4.08-1.83c1.75-0.75,4.06-1.82,7.64-3.07c-2.39,0.84-4.77,1.68-7.16,2.52c-0.07-0.23-0.22-0.68-0.22-0.68 c9.47-3.49,21.19-8.12,30.16-12.67c0,0-0.2-0.43-0.3-0.65l4.56-2.07c1.92-1.79-3.36,0.21-10.53,3.27 c-3.63,1.43-7.76,3.05-11.72,4.61c-3.99,1.47-7.84,2.74-10.79,3.74c-0.08-0.23-0.23-0.68-0.31-0.91l4.69-1.66l-0.16-0.45 c-3.51,1.23-6.85,2.5-10.21,3.44c-1.67,0.5-3.32,1-4.96,1.5c-1.65,0.47-3.26,1.04-4.92,1.41c-3.31,0.82-6.62,1.64-10,2.48 c-3.41,0.73-6.92,1.34-10.57,2.06c2.44-0.47,7.31-1.4,9.75-1.86c-0.05-0.23-0.1-0.46,2.3-1.06c-2.39,0.66-4.99,1.08-7.64,1.62 c-1.33,0.26-2.68,0.52-4.03,0.79c-1.36,0.25-2.72,0.57-4.1,0.72c-5.52,0.69-11.04,1.54-15.99,1.49c-1.24-0.03-1.25-0.27-0.04-0.6 c0.6-0.16,1.51-0.35,2.73-0.53c0.61-0.09,1.29-0.19,2.05-0.29c0.76-0.13,1.59-0.28,2.5-0.43c3.65-0.48,6.7-0.88,9.74-1.28 c3.02-0.58,6.04-1.15,9.66-1.84l-0.1-0.47c-2.41,0.49-5.41,1.09-8.42,1.7l-1.13,0.23c-0.38,0.05-0.76,0.1-1.13,0.16 c-0.75,0.1-1.49,0.19-2.21,0.29c-1.45,0.18-2.82,0.33-4.04,0.43c-2.45,0.08,4.76-1.35,2.3-1.27c-2.42,0.32-4.84,0.64-7.29,0.72 c3.63-0.45,7.87-0.97,12.1-1.5c4.2-0.77,8.4-1.57,11.97-2.37c2.32-0.81,4.63-1.64,4.52-2.1c1.48-0.35,2.92-0.69,4.33-1.02 c1.4-0.36,2.77-0.65,4.07-1.11c2.61-0.84,5.05-1.69,7.34-2.54c1.14-0.43,2.25-0.84,3.3-1.28c1.04-0.47,2.05-0.94,3.01-1.41 c1.93-0.93,3.7-1.84,5.31-2.73c0.53-0.33,1.65-0.77,3.12-1.39c1.46-0.64,3.28-1.4,5.25-2.19c1.96-0.81,4.09-1.62,6.12-2.47 C154.65,203.69,156.59,202.82,158.25,202.07z"/><path class="st0" d="M148.73,155.68c-1.03,0.56-2.05,1.12-3.07,1.69c8.44-5.25,17.12-10.69,25.4-16.44 c8.27-5.75,16.15-11.83,22.83-18.26c0.76-0.91,2.24-2.73,2.96-3.65c6.59-6.37,15.07-13.94,20.58-20.22 c1.38-1.55,2.97-2.56,4.2-3.23c0.64-0.33,1.16-0.57,1.55-0.73c0.39-0.16,0.63-0.24,0.63-0.24c0.87-0.59,2.2-1.05,2.15,0.05 c-0.35,0.95-1.26,2.56-2.06,3.98c-0.79,1.43-1.47,2.68-1.08,2.97c0.19,0.15,0.87-0.75,1.52-1.66c0.38,0.27,1.47,0.01,2.51-0.5 c1.06-0.5,2.06-1.26,2.36-1.76c0.48-0.39,1.93-1.92,3.11-3.72c0.58-0.9,1.14-1.85,1.51-2.7c0.41-0.83,0.61-1.56,0.78-1.88 c0.24-0.88,0.59-0.86,1.01-0.25c0.22,0.27,0.4,0.83,0.58,1.53c0.15,0.68,0.28,1.53,0.31,2.42c0.19,3.67-1.1,8.18-2.27,10.6 c-1.07,2.52,1,0.67,1.61,1.04c-1.71,2.17-1.93,3.68-3.76,5.63c0.09,0.07-1.03,1.72-2.56,3.61c-1.53,1.9-3.44,4.06-4.77,5.42 c0,0-1.04,0.77-3.75,3.4c-0.9,0.88-1.07,0.7-1.24,0.53c0.16,0.17,0.16,0.17,0.33,0.35c-1.24,0.52-2.74,2.57-3.83,3.23 c0.16,0.18,0.16,0.18,0.32,0.35c-2.17,1.31-3.72,3.31-5.76,4.72c0.15,0.18,0.15,0.18,0.31,0.37c-0.94,0.81-1.9,1.59-1.74,1.77 c0.15,0.18,0.15,0.18,0.31,0.37c-0.8,0.99-3.03,2.17-2.73,2.55c-0.15-0.19-0.15-0.19-0.3-0.37c-3.85,3.11-6.64,5.53-9.46,7.93 c-7.33,6.66-17.81,13.2-27.49,18.52c-1.04,0.65-2.35,0.86-1.54-0.18c-1.05,0.63-2.1,1.26-3.15,1.89 c-2.11,1.24-1.41,0.01-3.53,1.23c-8.76,4.38-17.41,8.94-26.34,13.12c-8.94,4.14-18.14,7.97-28.11,10.3 c4.86-1.59,8.28-3.21,13.02-4.71c-0.08-0.22-0.25-0.67,0.91-1.11c6.86-2.83,14.85-5.99,17.73-8.46c1-0.75,1.78-1.91,5.03-3.55 l-3.26,1.63c-0.11-0.21-0.32-0.64-0.32-0.64c4.25-2.34,9.49-5.37,13.58-7.93c0,0-0.23-0.42-0.35-0.63l2.1-1.18 c0.63-1.32-1.89-0.29-5.26,1.35c-3.37,1.64-7.63,3.85-10.37,5.07c-0.11-0.21-0.32-0.64-0.43-0.86l2.13-1.07l-0.22-0.43 c-6.38,3.23-11.79,5.75-18.4,8.47c1.11-0.44,3.3-1.38,4.4-1.85c-0.1-0.22-0.19-0.44,0.9-0.92c-4.34,1.93-9.79,4.38-14.44,5.47 c-1.2,0.15-0.3-0.88,2.93-2.33c3.31-1.24,5.5-2.12,8.76-3.51l-0.19-0.44c-2.16,0.94-5.35,2.48-7.64,3.09 c-1.18,0.2,1.94-1.51,0.75-1.31c-1.09,0.42-2.19,0.83-3.37,1.01c3.29-1.18,7.73-2.72,10.86-4.36c0.98-0.69,1.95-1.38,1.76-1.82 c5.43-2.18,9.34-4.92,11.91-7.58C140.39,159.91,145.67,157.41,148.73,155.68z"/><path class="st0" d="M391.89,190.99c-35.38-2.43-68.74,12.45-78.2,53.31c-9.74,42.06,18.51,66.71,53.69,71.16 c35.19,4.44,65.79-18.61,74.11-52.47C449.92,228.71,431.01,193.67,391.89,190.99z M409.84,260.56 c-4.55,19.48-26.28,30.95-43.59,26.91c-17.32-4.04-24.99-22.33-20.45-41.81c4.55-19.48,25.39-31.07,42.71-27.03 C405.83,222.67,414.38,241.09,409.84,260.56z"/><path class="st0" d="M703.07,199.12l-3.5,20.97l-1.58,9.49c-5.47-4.16-11.91-7.46-18.64-9.49c-1.99-0.6-4.01-1.09-6.04-1.46 c-6.9-1.25-13.51-0.61-19.41,1.46c-10.1,3.55-18.1,11.33-21.89,21.07c-0.57,1.46-1.04,2.96-1.41,4.5 c-1.73,7.18-1.88,13.72-0.56,19.43c2.24,9.75,8.76,17.09,19.02,21.07c10.87,4.22,26.61,2.82,39.87-2.22l-4.65,27.92 c-1.44,0.57-2.91,1.08-4.4,1.55c-9.18,2.89-19.29,3.96-29.99,2.81c-4.83-0.46-9.39-1.41-13.65-2.81 c-21.73-7.13-35.72-25.75-37.81-48.32c-0.69-7.55-0.06-15.53,2.06-23.68c0.02-0.08,0.04-0.17,0.07-0.25 c2.14-8.13,5.07-15.11,8.68-21.07c9.45-15.61,23.55-24.14,40.15-27.57c8.54-1.77,17.74-2.19,27.31-1.53 c3.59,0.25,7.01,0.76,10.25,1.53C692.93,193.93,698.32,196.19,703.07,199.12z"/><line class="st0" x1="684.28" y1="311.86" x2="684.02" y2="313.41"/><polygon class="st0" points="751.82,220.09 748.31,241.16 784.15,241.16 780.16,265.09 744.32,265.09 736.27,313.41 705.69,313.41 708.68,295.49 708.68,295.48 713.74,265.09 717.73,241.16 721.24,220.09 721.46,218.8 725.84,192.52 794.5,192.52 789.91,220.09"/><line class="st0" x1="684.02" y1="313.41" x2="679.88" y2="313.41"/><polygon class="st0" points="586.95,192.52 582.35,220.09 578.84,241.16 574.85,265.09 566.8,313.41 533.06,313.41 511.93,265.09 501.46,241.16 498.71,234.86 497.66,241.16 493.67,265.09 485.62,313.41 455.05,313.41 463.1,265.09 467.09,241.16 470.6,220.09 475.19,192.52 510.39,192.52 522.45,220.09 531.67,241.16 542.13,265.09 543.69,268.64 544.28,265.09 548.27,241.16 551.78,220.09 556.37,192.52"/><line class="st0" x1="713.74" y1="265.09" x2="712.6" y2="265.09"/></svg>